<?xml version="1.0" encoding="UTF-8"?><svg xmlns="http://www.w3.org/2000/svg" xmlns:xlink="http://www.w3.org/1999/xlink" width="768" zoomAndPan="magnify" viewBox="0 0 768 576" height="576" preserveAspectRatio="xMidYMid meet" version="1.0"><defs><clipPath id="clip-0"><path d="M 108 0 L 354 0 L 354 180 L 108 180 Z M 108 0 " clip-rule="nonzero"/></clipPath><clipPath id="clip-1"><path d="M 370.535156 154.644531 L 145.527344 206.929688 L 76.269531 -91.128906 L 301.273438 -143.414062 Z M 370.535156 154.644531 " clip-rule="nonzero"/></clipPath><clipPath id="clip-2"><path d="M 370.648438 155.132812 L 145.640625 207.414062 L 76.214844 -91.375 L 301.21875 -143.65625 Z M 370.648438 155.132812 " clip-rule="nonzero"/></clipPath><clipPath id="clip-3"><path d="M 0 0 L 374 0 L 374 301 L 0 301 Z M 0 0 " clip-rule="nonzero"/></clipPath><clipPath id="clip-4"><path d="M 426.519531 173.390625 L 176.386719 385.179688 L -104.21875 53.769531 L 145.914062 -158.019531 Z M 426.519531 173.390625 " clip-rule="nonzero"/></clipPath><clipPath id="clip-5"><path d="M 426.796875 173.71875 L 176.664062 385.507812 L -104.425781 53.523438 L 145.707031 -158.265625 Z M 426.796875 173.71875 " clip-rule="nonzero"/></clipPath><clipPath id="clip-6"><path d="M 0 188 L 117 188 L 117 305 L 0 305 Z M 0 188 " clip-rule="nonzero"/></clipPath><clipPath id="clip-7"><path d="M -53.421875 225.304688 L -5.683594 154.371094 L 144.894531 255.707031 L 97.15625 326.640625 Z M -53.421875 225.304688 " clip-rule="nonzero"/></clipPath><clipPath id="clip-8"><path d="M -55.136719 224.148438 L -7.398438 153.214844 L 146.289062 256.644531 L 98.550781 327.578125 Z M -55.136719 224.148438 " clip-rule="nonzero"/></clipPath><clipPath id="clip-9"><path d="M 600 0 L 768 0 L 768 198 L 600 198 Z M 600 0 " clip-rule="nonzero"/></clipPath><clipPath id="clip-10"><path d="M 657.175781 219.921875 L 550.5 132.378906 L 732.246094 -89.09375 L 838.925781 -1.550781 Z M 657.175781 219.921875 " clip-rule="nonzero"/></clipPath><clipPath id="clip-11"><path d="M 652.839844 225.207031 L 546.164062 137.664062 L 736.472656 -94.246094 L 843.152344 -6.703125 Z M 652.839844 225.207031 " clip-rule="nonzero"/></clipPath><clipPath id="clip-12"><path d="M 202 77 L 762 77 L 762 572 L 202 572 Z M 202 77 " clip-rule="nonzero"/></clipPath><clipPath id="clip-13"><path d="M 661.757812 19.503906 L 852.710938 419.515625 L 322.746094 672.5 L 131.796875 272.488281 Z M 661.757812 19.503906 " clip-rule="nonzero"/></clipPath><clipPath id="clip-14"><path d="M 662.261719 19.265625 L 853.210938 419.273438 L 322.570312 672.582031 L 131.621094 272.570312 Z M 662.261719 19.265625 " clip-rule="nonzero"/></clipPath></defs><g clip-path="url(#clip-0)"><g clip-path="url(#clip-1)"><g clip-path="url(#clip-2)"><path fill="rgb(14.898682%, 19.60907%, 21.958923%)" d="M 109.503906 49.65625 C 100.585938 -33.832031 146.84375 -107.785156 209.652344 -122.378906 C 222.738281 -125.421875 237.40625 -121.652344 245.742188 -109.515625 C 264 -78.429688 250 -43.710938 252.554688 -8.976562 C 254.136719 -2.167969 255.65625 4.378906 259.855469 10.582031 C 290.894531 49.183594 357.109375 37.386719 353.03125 91.050781 C 340.734375 192.445312 229.539062 200.617188 164.300781 145.394531 C 150.726562 134.472656 139.773438 122.941406 130.644531 107.398438 C 125.714844 98.054688 123.34375 87.84375 117.609375 79.789062 C 113.929688 69.882812 111.09375 60.054688 109.503906 49.65625 Z M 109.503906 49.65625 " fill-opacity="1" fill-rule="nonzero"/></g></g></g><g clip-path="url(#clip-3)"><g clip-path="url(#clip-4)"><g clip-path="url(#clip-5)"><path fill="rgb(27.059937%, 35.289001%, 39.219666%)" d="M 28.90625 209.886719 C -36.410156 110.332031 -25.910156 -12.957031 43.914062 -72.078125 C 58.460938 -84.394531 79.414062 -89.144531 97.796875 -79.234375 C 140.96875 -51.84375 145.777344 1.03125 171.492188 43.199219 C 177.898438 50.765625 184.054688 58.039062 193.371094 63.140625 C 257.539062 91.734375 333.476562 33.929688 363.074219 104.285156 C 413.203125 240.179688 278.152344 322.554688 160.054688 295.167969 C 135.851562 290.179688 114.558594 282.734375 92.972656 269.039062 C 80.703125 260.445312 71.09375 249.097656 58.644531 242.652344 C 47.582031 232.539062 37.640625 221.976562 28.90625 209.886719 Z M 28.90625 209.886719 " fill-opacity="1" fill-rule="nonzero"/></g></g></g><g clip-path="url(#clip-6)"><g clip-path="url(#clip-7)"><g clip-path="url(#clip-8)"><path fill="rgb(100%, 83.529663%, 11.759949%)" d="M 60.039062 200.8125 C 86.882812 207.699219 116.109375 260.898438 116.332031 294.449219 C 116.328125 294.835938 116.328125 295.226562 116.234375 295.554688 C 115.742188 298.597656 116.230469 301.527344 113.714844 303.34375 C 113.292969 303.96875 112.457031 304.058594 111.53125 304.082031 C 109.742188 304.050781 107.804688 303.265625 106.023438 302.066406 C 94.371094 294.355469 89.816406 282.453125 79.726562 273.191406 C 58.652344 254.460938 35.1875 276.617188 8.609375 265.101562 C -17.964844 253.582031 -31.851562 234.75 -37.773438 217.378906 C -43.699219 200.003906 -29.902344 177.191406 -8.289062 195.503906 C 20.394531 219.875 33.195312 193.921875 60.039062 200.8125 Z M 60.039062 200.8125 " fill-opacity="1" fill-rule="nonzero"/></g></g></g><g clip-path="url(#clip-9)"><g clip-path="url(#clip-10)"><g clip-path="url(#clip-11)"><path fill="rgb(14.898682%, 19.60907%, 21.958923%)" d="M 633.226562 36.234375 C 648.488281 -5.953125 738.621094 -45.011719 792.625 -40.320312 C 793.25 -40.257812 793.875 -40.195312 794.386719 -40 C 799.210938 -38.746094 804 -39.09375 806.527344 -34.765625 C 807.46875 -33.996094 807.476562 -32.636719 807.378906 -31.140625 C 807.042969 -28.265625 805.484375 -25.265625 803.273438 -22.574219 C 789.054688 -4.972656 769.199219 0.570312 752.730469 15.425781 C 719.316406 46.542969 751.3125 87.65625 728.644531 128.71875 C 705.976562 169.785156 673.523438 189.304688 644.652344 196.234375 C 615.777344 203.160156 581.226562 177.507812 614.054688 145.457031 C 657.722656 102.941406 617.964844 78.421875 633.226562 36.234375 Z M 633.226562 36.234375 " fill-opacity="1" fill-rule="nonzero"/></g></g></g><g clip-path="url(#clip-12)"><g clip-path="url(#clip-13)"><g clip-path="url(#clip-14)"><path fill="rgb(100%, 83.529663%, 11.759949%)" d="M 572.820312 552.042969 C 420.210938 603.183594 262.628906 547.015625 209.328125 435.355469 C 198.222656 412.09375 199.210938 383.058594 218.488281 362.433594 C 269.132812 315.40625 339.917969 327.316406 403.886719 308.207031 C 415.980469 302.433594 427.605469 296.882812 437.476562 286.457031 C 496.910156 212.386719 447.433594 93.1875 549.585938 78.699219 C 744.488281 59.925781 805.78125 264.886719 729.386719 409.894531 C 714.550781 439.828125 697.496094 465.105469 672.171875 488.621094 C 656.722656 501.710938 638.585938 510.367188 625.882812 524.429688 C 608.855469 535.414062 591.625 544.78125 572.820312 552.042969 Z M 572.820312 552.042969 " fill-opacity="1" fill-rule="nonzero"/></g></g></g></svg>